<svg width="1040" height="176" viewBox="0 0 1040 176" fill="none" xmlns="http://www.w3.org/2000/svg">
<mask id="path-1-inside-1_1032_808" fill="white">
<path d="M753.935 0.983398C802.082 -3.91815 845.075 31.1979 849.921 79.3857C854.767 127.573 819.628 170.555 771.47 175.351C723.386 180.139 680.513 145.042 675.679 96.9297C670.838 48.8169 705.862 5.87715 753.935 0.983398ZM831.051 83.7031C828.596 46.0576 796.169 17.4952 758.542 19.8428C720.766 22.1996 692.09 54.8097 694.55 92.6055C697.01 130.401 729.676 159.01 767.44 156.44C805.05 153.881 833.499 121.349 831.051 83.7031Z"></path>
</mask>
<path d="M753.935 0.983398L754.036 1.97826L754.036 1.97826L753.935 0.983398ZM849.921 79.3857L848.926 79.4858V79.4858L849.921 79.3857ZM771.47 175.351L771.371 174.355L771.371 174.356L771.47 175.351ZM675.679 96.9297L676.674 96.8297L676.674 96.8296L675.679 96.9297ZM831.051 83.7031L832.049 83.6382L832.049 83.6381L831.051 83.7031ZM758.542 19.8428L758.604 20.8408V20.8408L758.542 19.8428ZM694.55 92.6055L693.552 92.6704V92.6704L694.55 92.6055ZM767.44 156.44L767.508 157.438H767.508L767.44 156.44ZM753.935 0.983398L754.036 1.97826C801.632 -2.86725 844.135 31.8473 848.926 79.4858L849.921 79.3857L850.916 79.2857C846.015 30.5485 802.531 -4.96906 753.833 -0.0114595L753.935 0.983398ZM849.921 79.3857L848.926 79.4858C853.717 127.124 818.979 169.615 771.371 174.355L771.47 175.351L771.569 176.346C820.278 171.496 855.817 128.022 850.916 79.2857L849.921 79.3857ZM771.47 175.351L771.371 174.356C723.836 179.089 681.453 144.393 676.674 96.8297L675.679 96.9297L674.684 97.0297C679.574 145.691 722.935 181.189 771.569 176.346L771.47 175.351ZM675.679 96.9297L676.674 96.8296C671.889 49.2652 706.513 6.81606 754.036 1.97826L753.935 0.983398L753.833 -0.0114599C705.211 4.93824 669.788 48.3685 674.684 97.0298L675.679 96.9297ZM831.051 83.7031L832.049 83.6381C829.558 45.4433 796.658 16.4628 758.48 18.8447L758.542 19.8428L758.604 20.8408C795.681 18.5276 827.634 46.672 830.053 83.7682L831.051 83.7031ZM758.542 19.8428L758.48 18.8447C720.151 21.236 691.056 54.3232 693.552 92.6704L694.55 92.6055L695.548 92.5405C693.123 55.2961 721.382 23.1631 758.604 20.8408L758.542 19.8428ZM694.55 92.6055L693.552 92.6704C696.048 131.017 729.191 160.045 767.508 157.438L767.44 156.44L767.373 155.443C730.161 157.974 697.972 129.784 695.548 92.5405L694.55 92.6055ZM767.44 156.44L767.508 157.438C805.669 154.842 834.533 121.833 832.049 83.6382L831.051 83.7031L830.053 83.768C832.466 120.864 804.432 152.921 767.373 155.443L767.44 156.44Z" fill="#28356A" mask="url(#path-1-inside-1_1032_808)"></path>
<path d="M634.138 0.59082L634.133 174.072L615.714 174.132L615.72 76.2891L615.674 42.0508L615.672 40.2266L614.743 41.7969L549.297 152.541L537.057 152.549L470.041 40.8193L469.111 39.2705V41.0762L469.123 174.072L450.705 174.136L450.711 0.564453L467.583 0.567383C474.962 13.9433 484.963 29.7015 492.892 42.9375V42.9385L542.676 126.038L543.099 126.744L543.53 126.043C568.462 85.5373 593.364 41.7346 617.656 0.5625L634.138 0.59082Z" stroke="#28356A"></path>
<path d="M910.226 0.570312C922.52 15.9325 934.841 32.3054 946.939 47.9023L1019.45 141.428L1020.37 142.607L1020.35 141.115C1019.75 94.8919 1020.29 47.456 1020.29 1.1123L1039.06 1.12305L1039.02 126.71L1039.05 157.358V157.359C1039.05 159.254 1039.13 162.648 1039.12 166.025C1039.12 169.244 1039.05 172.328 1038.79 173.907L1038.12 174.279L1021.32 174.286C1009.15 159.54 996.285 142.067 984.369 126.711L910.936 32.0508L910.04 30.8965L910.041 32.3574L910.062 174.281L891.325 174.275L891.33 0.566406L910.226 0.570312Z" stroke="#28356A"></path>
<path d="M258.135 1.23145C264.632 16.3144 272.047 32.0457 279.023 47.2129L282.002 53.7188L336.818 174.29H315.912C310.526 161.29 302.755 145.362 296.829 132.541L296.695 132.25H296.376L220.074 132.252C223.082 126.331 226.647 120.012 229.819 114.129L287.798 114.098H288.55L288.259 113.404C284.187 103.713 279.447 93.5094 275.025 83.7314L273.153 79.5693L248.332 24.1787L247.873 23.1553L247.418 24.1807C225.348 73.9137 201.248 124.768 178.338 174.281L159.015 174.277L237.933 1.21191L258.135 1.23145Z" stroke="#28356A"></path>
<path d="M66.9824 0.774414C87.393 -1.26883 112.773 8.37019 129.453 20.1396C126.011 24.7963 121.791 29.917 118.149 34.5381C99.9694 22.0033 76.3901 15.7057 54.6582 20.7871L54.6514 20.7891C47.7166 22.5126 40.8512 24.7757 35.4639 28.6211C30.0608 32.4778 26.153 37.9217 25.1318 45.9541C23.9416 52.589 25.2196 57.8122 28.3682 61.9297C31.5018 66.0277 36.4465 68.9762 42.4902 71.166C49.8085 73.8174 59.3522 75.8224 69.4541 78.042C79.5748 80.2657 90.2778 82.7083 99.9814 86.2354C109.688 89.7636 118.348 94.3609 124.412 100.865C130.459 107.352 133.95 115.762 133.284 126.993C132.485 139.742 126.725 151.669 117.24 160.218C102.366 173.434 82.1501 175.071 63.0361 173.929L61.8164 173.854C36.548 172.2 22.2617 165.875 0.679688 153.254L9.75293 137.401C21.795 144.314 31.6988 149.244 42.2061 152.273C52.8453 155.341 64.0766 156.454 78.7461 155.738C89.3128 155.223 100.406 152.028 107.71 143.824C109.854 141.416 111.893 137.843 113.315 134.123C114.736 130.409 115.568 126.479 115.235 123.36C114.616 117.561 111.095 113.041 105.996 109.459C100.903 105.881 94.1898 103.204 87.0713 101.085C79.9478 98.9648 72.3825 97.3937 65.5703 96.0449C58.7417 94.6929 52.6961 93.5687 48.5596 92.3379V92.3369L48.5469 92.334L47.502 92.0488C36.7401 89.0666 27.1481 85.0642 18.3516 78.0312C9.8981 71.2727 6.26676 60.6438 6.45801 49.7568C6.6494 38.8675 10.6669 27.7939 17.4111 20.2197C29.2265 6.95068 49.4509 1.86217 66.9639 0.776367L66.9727 0.775391L66.9824 0.774414Z" stroke="#28356A"></path>
<path d="M393.601 60.2393L393.569 174.22C391.533 174.381 388.053 174.405 384.482 174.382C380.926 174.359 377.285 174.293 374.988 174.286L374.984 60.2373L393.601 60.2393Z" stroke="#28356A"></path>
<path d="M382.012 0.769531C391.411 -0.497411 400.056 6.10228 401.318 15.5088C402.581 24.9163 395.982 33.5653 386.582 34.8252C377.187 36.0845 368.55 29.4861 367.288 20.084C366.026 10.6821 372.617 2.03555 382.012 0.769531Z" stroke="#28356A"></path>
</svg>